<svg version="1.1" id="Layer_1" xmlns="http://www.w3.org/2000/svg" xmlns:xlink="http://www.w3.org/1999/xlink" x="0px" y="0px"
	 width="100%" viewBox="0 0 240 240" enable-background="new 0 0 240 240" xml:space="preserve">
<path fill="#010101" opacity="1.000000" stroke="none" 
	d="
M131.000000,241.000000 
	C87.333336,241.000000 44.166672,241.000000 1.000006,241.000000 
	C1.000004,161.000000 1.000004,81.000015 1.000002,1.000016 
	C80.999992,1.000011 160.999985,1.000011 240.999969,1.000005 
	C240.999985,80.999985 240.999985,160.999969 241.000000,240.999969 
	C204.500000,241.000000 168.000000,241.000000 131.000000,241.000000 
M194.399704,96.199654 
	C190.877487,103.474258 192.521622,109.147141 199.429657,112.873764 
	C201.675568,112.728233 203.921494,112.582710 206.773026,112.274696 
	C211.089355,110.740356 213.834015,107.990204 214.051834,103.148285 
	C214.458939,94.098351 207.245682,89.779480 196.396347,93.091057 
	C195.920349,93.984184 195.444351,94.877319 194.399704,96.199654 
M68.618256,98.135696 
	C54.046787,115.016769 48.323116,134.708939 49.728252,156.881271 
	C96.996643,156.881271 143.997177,156.881271 191.389282,156.881271 
	C191.665131,130.718903 185.569427,107.736359 164.080704,90.976967 
	C161.278580,88.791542 159.747772,88.753075 157.892395,91.852074 
	C154.579239,97.385994 150.907745,102.705696 147.607056,108.246605 
	C146.191574,110.622795 144.807602,111.041962 142.004776,110.561119 
	C127.792885,108.122986 113.481133,108.091560 99.284775,110.594696 
	C96.006340,111.172760 94.535645,110.492088 92.939262,107.840981 
	C88.858047,101.063316 84.496620,94.454376 79.927162,87.274994 
	C76.022362,90.993874 72.554634,94.296486 68.618256,98.135696 
z"/>
<path fill="#FCFCFC" opacity="1.000000" stroke="none" 
	d="
M68.852585,97.867401 
	C72.554634,94.296486 76.022362,90.993874 79.927162,87.274994 
	C84.496620,94.454376 88.858047,101.063316 92.939262,107.840981 
	C94.535645,110.492088 96.006340,111.172760 99.284775,110.594696 
	C113.481133,108.091560 127.792885,108.122986 142.004776,110.561119 
	C144.807602,111.041962 146.191574,110.622795 147.607056,108.246605 
	C150.907745,102.705696 154.579239,97.385994 157.892395,91.852074 
	C159.747772,88.753075 161.278580,88.791542 164.080704,90.976967 
	C185.569427,107.736359 191.665131,130.718903 191.389282,156.881271 
	C143.997177,156.881271 96.996643,156.881271 49.728252,156.881271 
	C48.323116,134.708939 54.046787,115.016769 68.852585,97.867401 
M89.721756,143.077469 
	C93.833405,139.945892 94.093521,135.891495 92.223915,131.544586 
	C90.928299,128.532227 85.126266,126.672813 84.066666,128.897812 
	C82.740959,131.681595 81.721901,135.302536 82.387550,138.135101 
	C82.969322,140.610764 84.808815,144.217773 89.721756,143.077469 
M155.903793,142.117386 
	C158.831512,138.674438 159.096466,134.762100 156.841537,131.126251 
	C155.979340,129.736038 153.334091,128.516220 151.704819,128.734848 
	C148.461563,129.170044 146.614319,134.586014 148.019302,138.775085 
	C149.190506,142.267136 151.175461,144.711166 155.903793,142.117386 
M118.839653,135.927414 
	C117.627609,136.761566 115.273178,138.087463 115.386635,138.351044 
	C116.197952,140.235825 117.278069,142.163345 118.778198,143.517181 
	C119.400902,144.079163 121.715820,143.724747 122.462257,142.983032 
	C123.839195,141.614822 124.626221,139.652924 125.659050,137.938400 
	C123.664093,137.266388 121.669136,136.594376 118.839653,135.927414 
z"/>
<path fill="#121212" opacity="1.000000" stroke="none" 
	d="
M206.167404,112.437180 
	C203.921494,112.582710 201.675568,112.728233 199.272888,112.191559 
	C199.069122,111.025490 199.022110,110.541618 199.005478,109.641937 
	C199.083130,108.672516 199.130402,108.118904 199.517578,107.706711 
	C200.800461,106.751701 201.743484,105.655281 202.671875,104.575844 
	C203.708542,105.736542 204.880997,107.049301 206.053467,108.362053 
	C206.592896,106.238571 205.522491,104.626373 205.854630,103.391350 
	C207.556534,97.062759 207.682785,97.096710 201.031067,96.405289 
	C201.039536,95.545052 201.039795,94.971558 201.423492,94.267174 
	C205.793793,93.732033 209.145493,94.899147 210.651886,98.803780 
	C212.177475,102.758171 211.750809,106.507561 208.114990,109.450478 
	C207.235916,110.162041 206.804626,111.426811 206.167404,112.437180 
z"/>
<path fill="#D9D9D9" opacity="1.000000" stroke="none" 
	d="
M206.470215,112.355942 
	C206.804626,111.426811 207.235916,110.162041 208.114990,109.450478 
	C211.750809,106.507561 212.177475,102.758171 210.651886,98.803780 
	C209.145493,94.899147 205.793793,93.732033 201.023132,94.253632 
	C199.181686,93.919746 198.124069,93.468521 197.066437,93.017288 
	C207.245682,89.779480 214.458939,94.098351 214.051834,103.148285 
	C213.834015,107.990204 211.089355,110.740356 206.470215,112.355942 
z"/>
<path fill="#232323" opacity="1.000000" stroke="none" 
	d="
M196.731384,93.054169 
	C198.124069,93.468521 199.181686,93.919746 200.639679,94.384521 
	C201.039795,94.971558 201.039536,95.545052 200.630524,96.537628 
	C199.873734,100.492905 199.525711,104.029106 199.177689,107.565300 
	C199.130402,108.118904 199.083130,108.672516 198.703094,109.456070 
	C194.929230,106.790283 194.220642,103.214844 195.454788,98.985756 
	C195.730286,98.041702 195.153015,96.848793 194.968369,95.770454 
	C195.444351,94.877319 195.920349,93.984184 196.731384,93.054169 
z"/>
<path fill="#FCFCFC" opacity="1.000000" stroke="none" 
	d="
M194.684036,95.985054 
	C195.153015,96.848793 195.730286,98.041702 195.454788,98.985756 
	C194.220642,103.214844 194.929230,106.790283 198.672729,109.871887 
	C199.022110,110.541618 199.069122,111.025490 199.081696,111.872444 
	C192.521622,109.147141 190.877487,103.474258 194.684036,95.985054 
z"/>
<path fill="#121212" opacity="1.000000" stroke="none" 
	d="
M89.383781,143.180801 
	C84.808815,144.217773 82.969322,140.610764 82.387550,138.135101 
	C81.721901,135.302536 82.740959,131.681595 84.066666,128.897812 
	C85.126266,126.672813 90.928299,128.532227 92.223915,131.544586 
	C94.093521,135.891495 93.833405,139.945892 89.383781,143.180801 
z"/>
<path fill="#0E0E0E" opacity="1.000000" stroke="none" 
	d="
M155.647064,142.381500 
	C151.175461,144.711166 149.190506,142.267136 148.019302,138.775085 
	C146.614319,134.586014 148.461563,129.170044 151.704819,128.734848 
	C153.334091,128.516220 155.979340,129.736038 156.841537,131.126251 
	C159.096466,134.762100 158.831512,138.674438 155.647064,142.381500 
z"/>
<path fill="#121212" opacity="1.000000" stroke="none" 
	d="
M119.256920,135.924881 
	C121.669136,136.594376 123.664093,137.266388 125.659050,137.938400 
	C124.626221,139.652924 123.839195,141.614822 122.462257,142.983032 
	C121.715820,143.724747 119.400902,144.079163 118.778198,143.517181 
	C117.278069,142.163345 116.197952,140.235825 115.386635,138.351044 
	C115.273178,138.087463 117.627609,136.761566 119.256920,135.924881 
z"/>
<path fill="#D0D0D0" opacity="1.000000" stroke="none" 
	d="
M199.517578,107.706711 
	C199.525711,104.029106 199.873734,100.492905 200.622299,96.824371 
	C207.682785,97.096710 207.556534,97.062759 205.854630,103.391350 
	C205.522491,104.626373 206.592896,106.238571 206.053467,108.362053 
	C204.880997,107.049301 203.708542,105.736542 202.671875,104.575844 
	C201.743484,105.655281 200.800461,106.751701 199.517578,107.706711 
z"/>
</svg>